<?xml version="1.0" standalone="no"?><!DOCTYPE svg PUBLIC "-//W3C//DTD SVG 1.1//EN" "http://www.w3.org/Graphics/SVG/1.1/DTD/svg11.dtd"><svg t="1571195712475" class="icon" viewBox="0 0 1024 1024" version="1.1" xmlns="http://www.w3.org/2000/svg" p-id="1134" xmlns:xlink="http://www.w3.org/1999/xlink" width="200" height="200"><defs><style type="text/css"></style></defs><path d="M686.6 372.5c4.5 0 9 0.1 13.4 0.3C676.5 246.1 544.2 149 384.5 149 208.2 149 65.3 267.3 65.3 413.2c0 85.6 49.1 161.6 125.3 209.9 1 0.6 2.9 1.8 2.9 1.8l-30.9 95.6L278 662.3l5.4 1.5c31.7 8.7 65.7 13.5 101 13.5 7.2 0 14.3-0.3 21.4-0.6-6.5-20.1-10.1-41.2-10.1-63 0.1-133.2 130.4-241.2 290.9-241.2z m-191-93.2c24.8 0 44.8 19.2 44.8 43 0 23.7-20 43-44.8 43s-44.8-19.3-44.8-43c0-23.8 20-43 44.8-43z m-222.2 85.9c-24.7 0-44.8-19.3-44.8-43s20.1-43 44.8-43c24.8 0 44.9 19.2 44.9 43 0 23.7-20.1 43-44.9 43z m685.3 250.1c0-123.3-120.7-223.2-269.6-223.2-149 0-269.7 99.9-269.7 223.2 0 123.3 120.8 223.2 269.7 223.2 29.8 0 58.5-4 85.3-11.4 1.5-0.4 4.6-1.3 4.6-1.3l97.4 49.2-26-80.8s1.7-1 2.5-1.5c64.3-40.8 105.8-105.1 105.8-177.4z m-363.5-40.6c-20.9 0-37.9-16.3-37.9-36.3 0-20 16.9-36.2 37.9-36.2 20.9 0 37.9 16.2 37.9 36.2 0 20.1-17 36.3-37.9 36.3z m187.6 0c-20.9 0-37.8-16.3-37.8-36.3 0-20 16.9-36.2 37.8-36.2 21 0 37.9 16.2 37.9 36.2 0 20.1-16.9 36.3-37.9 36.3z" fill="#333333" p-id="1135"></path></svg>